<svg xmlns="http://www.w3.org/2000/svg" id="Layer_2" data-name="Layer 2" viewBox="0 0 244.29 123.44"><defs><style>      .cls-1 {        fill: #2e2e3a;      }      .cls-1, .cls-2 {        stroke-width: 0px;      }      .cls-2 {        fill: #93a78b;      }    </style></defs><g id="Layer_1-2" data-name="Layer 1"><g><path class="cls-1" d="M61.78,50.38c.21,0,.4.08.55.25l1.54,1.67c-.85,1.05-1.9,1.86-3.14,2.42s-2.73.84-4.47.84c-1.56,0-2.96-.27-4.2-.8s-2.3-1.27-3.18-2.22c-.88-.95-1.55-2.08-2.02-3.39-.47-1.31-.7-2.75-.7-4.31s.26-3.02.78-4.33c.52-1.31,1.26-2.44,2.2-3.39.95-.95,2.08-1.68,3.4-2.21,1.32-.53,2.78-.79,4.37-.79s2.92.25,4.08.75c1.16.5,2.16,1.16,2.99,1.98l-1.3,1.81c-.08.12-.18.22-.3.3-.12.09-.29.13-.5.13s-.45-.09-.68-.26c-.23-.17-.53-.36-.88-.57-.36-.2-.81-.39-1.36-.57-.55-.17-1.24-.26-2.08-.26-.99,0-1.89.17-2.72.51-.83.34-1.54.83-2.13,1.47-.59.64-1.06,1.41-1.39,2.33-.33.91-.5,1.94-.5,3.08s.17,2.23.5,3.15.79,1.69,1.36,2.32c.57.63,1.24,1.11,2.02,1.44s1.6.5,2.49.5c.53,0,1.01-.03,1.44-.09s.83-.15,1.19-.28c.36-.13.71-.29,1.03-.49.32-.2.65-.44.96-.73.1-.09.2-.16.3-.21.11-.05.22-.08.35-.08Z"></path><path class="cls-1" d="M64.8,40.45h2.84c.27,0,.5.06.68.19s.3.29.35.48l2.13,7.95c.12.44.21.86.28,1.28.07.42.14.83.21,1.25.11-.42.22-.83.34-1.25.12-.42.25-.84.38-1.28l2.47-7.97c.06-.19.17-.35.35-.48.17-.13.38-.19.61-.19h1.58c.26,0,.48.06.65.19s.29.29.35.48l2.44,8.12c.13.42.24.82.34,1.21.1.39.2.79.3,1.18.07-.42.14-.83.22-1.25.08-.42.19-.85.31-1.29l2.2-7.95c.05-.19.16-.35.35-.48s.4-.19.64-.19h2.71l-4.71,14.88h-2.89c-.31,0-.53-.21-.67-.64l-2.68-8.6c-.09-.28-.17-.56-.24-.85-.07-.28-.13-.57-.18-.85-.06.29-.12.58-.19.86-.07.29-.14.57-.23.86l-2.71,8.57c-.14.43-.4.64-.78.64h-2.74l-4.71-14.88Z"></path><path class="cls-1" d="M89.55,55.32v-14.88h2.19c.46,0,.77.22.91.65l.23,1.1c.26-.29.53-.56.82-.8.28-.24.59-.45.91-.62.32-.17.67-.31,1.04-.41.37-.1.78-.15,1.23-.15.94,0,1.71.25,2.31.76.6.51,1.06,1.18,1.36,2.02.23-.49.52-.92.87-1.27.35-.35.73-.64,1.15-.86.42-.22.86-.39,1.33-.49.47-.11.94-.16,1.41-.16.82,0,1.55.13,2.19.38.64.25,1.17.62,1.61,1.1s.77,1.07.99,1.77c.23.7.34,1.49.34,2.39v9.47h-3.58v-9.47c0-.95-.21-1.66-.62-2.14s-1.02-.72-1.83-.72c-.37,0-.71.06-1.02.19-.31.13-.59.31-.83.54s-.42.53-.56.89c-.14.36-.2.77-.2,1.23v9.47h-3.6v-9.47c0-1-.2-1.72-.6-2.18-.4-.45-.99-.68-1.78-.68-.51,0-.99.13-1.44.38-.45.26-.87.61-1.25,1.05v10.89h-3.58Z"></path><path class="cls-1" d="M114.01,55.32v-21.55h3.58v8.5c.59-.63,1.26-1.13,2-1.5.74-.37,1.61-.56,2.61-.56.81,0,1.55.17,2.23.5.67.33,1.25.82,1.74,1.46.49.64.87,1.43,1.13,2.36.27.94.4,2.02.4,3.23,0,1.11-.15,2.14-.45,3.09-.3.95-.73,1.77-1.28,2.46-.56.7-1.23,1.24-2.02,1.63-.79.39-1.67.59-2.65.59-.45,0-.87-.05-1.25-.14s-.72-.22-1.03-.38c-.31-.16-.6-.36-.86-.6-.27-.24-.52-.5-.76-.79l-.16,1c-.06.25-.16.43-.3.54-.14.11-.33.16-.57.16h-2.36ZM120.97,43c-.74,0-1.38.16-1.91.47-.53.31-1.02.76-1.47,1.33v6.67c.41.5.85.85,1.33,1.05s1,.3,1.56.3,1.03-.1,1.46-.3.8-.51,1.11-.93c.3-.42.54-.94.7-1.57.16-.63.25-1.38.25-2.24s-.07-1.61-.21-2.21-.34-1.09-.6-1.47c-.26-.38-.58-.65-.95-.83s-.79-.26-1.27-.26Z"></path><path class="cls-1" d="M130.49,55.32v-14.88h2.1c.37,0,.62.07.77.2s.24.37.29.7l.22,1.8c.53-.92,1.16-1.64,1.87-2.17s1.52-.8,2.41-.8c.73,0,1.34.17,1.83.51l-.46,2.68c-.03.17-.09.3-.19.37-.1.07-.23.11-.39.11-.15,0-.34-.03-.59-.1-.25-.07-.58-.1-1-.1-.74,0-1.38.21-1.91.62-.53.41-.98,1.01-1.35,1.81v9.27h-3.58Z"></path><path class="cls-1" d="M153.58,55.32h-1.61c-.34,0-.6-.05-.8-.15s-.34-.31-.44-.62l-.32-1.06c-.38.34-.75.64-1.11.89-.36.26-.74.47-1.12.65-.39.17-.8.3-1.23.39-.43.09-.92.13-1.45.13-.63,0-1.21-.08-1.74-.25s-.99-.42-1.37-.76-.68-.76-.89-1.27c-.21-.5-.32-1.09-.32-1.76,0-.56.15-1.12.44-1.67.29-.55.79-1.04,1.47-1.48s1.6-.81,2.74-1.1,2.56-.44,4.25-.44v-.88c0-1-.21-1.75-.63-2.23-.42-.48-1.03-.72-1.83-.72-.58,0-1.06.07-1.45.2-.39.14-.72.29-1.01.46-.29.17-.55.32-.79.46s-.51.2-.8.2c-.24,0-.45-.06-.62-.19-.17-.13-.31-.28-.42-.46l-.65-1.15c1.71-1.57,3.77-2.35,6.19-2.35.87,0,1.65.14,2.33.43s1.26.68,1.73,1.19c.47.51.83,1.11,1.08,1.82s.37,1.48.37,2.32v9.4ZM146.62,53.09c.37,0,.71-.03,1.02-.1.31-.07.6-.17.88-.3.28-.13.54-.3.8-.49.26-.19.51-.43.78-.69v-2.49c-1.04,0-1.92.07-2.62.2-.7.13-1.26.3-1.69.5s-.73.44-.91.72c-.18.27-.27.57-.27.89,0,.63.19,1.09.56,1.36.37.27.86.41,1.46.41Z"></path><path class="cls-1" d="M157.1,55.32v-14.88h2.19c.46,0,.77.22.91.65l.25,1.17c.3-.31.62-.59.95-.84.33-.25.69-.47,1.06-.65.37-.18.77-.32,1.2-.42s.89-.15,1.39-.15c.81,0,1.53.14,2.16.41s1.15.66,1.57,1.16.74,1.09.96,1.78c.22.69.33,1.45.33,2.28v9.47h-3.58v-9.47c0-.91-.21-1.61-.63-2.11-.42-.5-1.05-.75-1.89-.75-.62,0-1.2.14-1.74.42-.54.28-1.05.66-1.54,1.15v10.76h-3.58Z"></path><path class="cls-1" d="M61.78,85.18c.21,0,.4.08.55.25l1.54,1.67c-.85,1.05-1.9,1.86-3.14,2.42s-2.73.84-4.47.84c-1.56,0-2.96-.27-4.2-.8-1.24-.53-2.3-1.27-3.18-2.22-.88-.95-1.55-2.08-2.02-3.39-.47-1.32-.7-2.75-.7-4.31s.26-3.02.78-4.33c.52-1.31,1.26-2.44,2.2-3.39.95-.95,2.08-1.68,3.4-2.21,1.32-.53,2.78-.79,4.37-.79s2.92.25,4.08.75c1.16.5,2.16,1.16,2.99,1.98l-1.3,1.81c-.08.12-.18.22-.3.3-.12.09-.29.13-.5.13s-.45-.09-.68-.26c-.23-.17-.53-.36-.88-.57-.36-.2-.81-.39-1.36-.57-.55-.17-1.24-.26-2.08-.26-.99,0-1.89.17-2.72.51-.83.34-1.54.83-2.13,1.47-.59.64-1.06,1.41-1.39,2.33-.33.91-.5,1.94-.5,3.08s.17,2.23.5,3.15c.33.92.79,1.69,1.36,2.32.57.63,1.24,1.11,2.02,1.44.77.33,1.6.5,2.49.5.53,0,1.01-.03,1.44-.09.43-.06.83-.15,1.19-.28.36-.13.71-.29,1.03-.49.32-.2.65-.44.96-.73.1-.09.2-.16.3-.21.11-.05.22-.08.35-.08Z"></path><path class="cls-1" d="M78.27,90.12h-1.61c-.34,0-.6-.05-.8-.15s-.34-.31-.44-.62l-.32-1.06c-.38.34-.75.63-1.11.89-.36.26-.74.47-1.12.65-.39.17-.8.3-1.23.39-.43.09-.92.13-1.45.13-.63,0-1.21-.08-1.74-.25-.53-.17-.99-.42-1.37-.76-.38-.34-.68-.76-.89-1.27-.21-.5-.32-1.09-.32-1.76,0-.56.15-1.12.44-1.67.29-.55.79-1.04,1.47-1.48s1.6-.81,2.74-1.1,2.56-.44,4.25-.44v-.88c0-1-.21-1.75-.63-2.23-.42-.48-1.03-.72-1.83-.72-.58,0-1.06.07-1.45.2-.39.14-.72.29-1.01.46-.29.17-.55.32-.79.46s-.51.2-.8.2c-.24,0-.45-.06-.62-.19-.17-.13-.31-.28-.42-.46l-.65-1.15c1.71-1.57,3.77-2.35,6.19-2.35.87,0,1.65.14,2.33.43s1.26.68,1.73,1.19c.47.51.83,1.11,1.08,1.82s.37,1.48.37,2.32v9.4ZM71.31,87.89c.37,0,.71-.03,1.02-.1.31-.07.6-.17.88-.3.28-.13.54-.3.8-.49.26-.19.51-.43.78-.69v-2.49c-1.04,0-1.92.07-2.62.2-.7.13-1.26.3-1.69.5-.43.2-.73.44-.91.71-.18.27-.27.57-.27.89,0,.63.19,1.09.56,1.36s.86.41,1.46.41Z"></path><path class="cls-1" d="M81.79,90.12v-14.88h2.1c.37,0,.62.07.77.2s.24.37.29.7l.22,1.8c.53-.92,1.16-1.64,1.87-2.17s1.52-.8,2.41-.8c.73,0,1.34.17,1.83.51l-.46,2.68c-.03.17-.09.3-.19.37-.1.07-.23.11-.39.11-.15,0-.34-.03-.59-.1-.25-.07-.58-.1-1-.1-.74,0-1.38.21-1.91.62-.53.41-.98,1.01-1.35,1.8v9.27h-3.58Z"></path><path class="cls-1" d="M93.64,94.98v-19.73h2.19c.23,0,.43.05.59.16.16.11.27.27.32.49l.29,1.38c.6-.69,1.29-1.24,2.07-1.67.78-.43,1.69-.64,2.73-.64.81,0,1.55.17,2.23.51s1.25.83,1.74,1.47c.49.64.87,1.44,1.13,2.38.27.94.4,2.02.4,3.24,0,1.11-.15,2.14-.45,3.09s-.73,1.77-1.28,2.46c-.56.7-1.23,1.24-2.02,1.63-.79.39-1.67.59-2.65.59-.84,0-1.55-.13-2.14-.38-.58-.26-1.11-.61-1.57-1.07v6.09h-3.58ZM100.6,77.8c-.74,0-1.38.16-1.91.47-.53.31-1.02.76-1.47,1.33v6.67c.41.5.85.85,1.33,1.05.48.2.99.3,1.54.3s1.03-.1,1.47-.3c.44-.2.81-.51,1.12-.93.3-.42.54-.94.7-1.57.16-.63.25-1.38.25-2.24s-.07-1.61-.21-2.21c-.14-.6-.34-1.09-.6-1.47-.26-.38-.58-.65-.95-.83s-.79-.26-1.27-.26Z"></path><path class="cls-1" d="M116.18,75.02c.94,0,1.8.15,2.59.45.79.3,1.47.74,2.04,1.31s1.02,1.28,1.33,2.12c.32.84.48,1.79.48,2.86,0,.27-.01.5-.04.67-.02.18-.07.32-.13.42-.06.1-.15.17-.25.22-.11.04-.24.07-.41.07h-9.19c.11,1.53.52,2.65,1.23,3.36.72.72,1.66,1.07,2.84,1.07.58,0,1.08-.07,1.5-.2.42-.14.79-.29,1.1-.45.31-.16.59-.31.83-.45.24-.14.47-.2.69-.2.15,0,.27.03.38.09s.2.14.28.25l1.04,1.31c-.4.46-.84.85-1.33,1.17-.49.31-1.01.57-1.54.75s-1.08.32-1.64.4c-.56.08-1.09.12-1.62.12-1.03,0-2-.17-2.89-.51-.89-.34-1.66-.85-2.32-1.52-.66-.67-1.17-1.5-1.55-2.49s-.57-2.14-.57-3.44c0-1.01.16-1.97.49-2.86.33-.89.8-1.67,1.41-2.33.61-.66,1.36-1.19,2.25-1.57.88-.39,1.88-.58,2.99-.58ZM116.26,77.58c-1.04,0-1.86.29-2.45.88s-.97,1.43-1.13,2.51h6.73c0-.46-.06-.9-.19-1.31-.13-.41-.32-.77-.58-1.08-.26-.31-.59-.55-.99-.73-.4-.18-.86-.27-1.39-.27Z"></path><path class="cls-1" d="M130.42,90.36c-1.29,0-2.28-.37-2.97-1.09-.7-.73-1.04-1.74-1.04-3.02v-8.31h-1.51c-.19,0-.36-.06-.5-.19-.14-.13-.21-.31-.21-.57v-1.42l2.39-.39.75-4.06c.04-.19.13-.34.27-.45.14-.11.32-.16.53-.16h1.86v4.68h3.91v2.55h-3.91v8.06c0,.46.12.83.35,1.09.23.26.54.39.93.39.22,0,.41-.03.56-.08s.28-.11.39-.17c.11-.06.21-.11.3-.17.09-.05.17-.08.26-.08.11,0,.19.03.26.08.07.05.14.13.22.24l1.07,1.74c-.52.43-1.12.76-1.8.99-.68.22-1.38.33-2.1.33Z"></path><path class="cls-1" d="M156.97,85.18c.21,0,.4.08.55.25l1.54,1.67c-.85,1.05-1.9,1.86-3.14,2.42s-2.73.84-4.47.84c-1.56,0-2.96-.27-4.2-.8-1.24-.53-2.3-1.27-3.18-2.22-.88-.95-1.55-2.08-2.02-3.39-.47-1.32-.7-2.75-.7-4.31s.26-3.02.78-4.33c.52-1.31,1.26-2.44,2.2-3.39.95-.95,2.08-1.68,3.4-2.21,1.32-.53,2.78-.79,4.37-.79s2.92.25,4.08.75c1.16.5,2.16,1.16,2.99,1.98l-1.3,1.81c-.08.12-.18.22-.3.3-.12.09-.29.13-.5.13s-.45-.09-.68-.26c-.23-.17-.53-.36-.88-.57-.36-.2-.81-.39-1.36-.57-.55-.17-1.24-.26-2.08-.26-.99,0-1.89.17-2.72.51-.83.34-1.54.83-2.13,1.47-.59.64-1.06,1.41-1.39,2.33-.33.91-.5,1.94-.5,3.08s.17,2.23.5,3.15c.33.92.79,1.69,1.36,2.32.57.63,1.24,1.11,2.02,1.44.77.33,1.6.5,2.49.5.53,0,1.01-.03,1.44-.09.43-.06.83-.15,1.19-.28.36-.13.71-.29,1.03-.49.32-.2.65-.44.96-.73.1-.09.2-.16.3-.21.11-.05.22-.08.35-.08Z"></path><path class="cls-1" d="M167.95,75.02c.94,0,1.8.15,2.59.45.79.3,1.47.74,2.04,1.31s1.02,1.28,1.33,2.12c.32.84.48,1.79.48,2.86,0,.27-.01.5-.04.67-.02.18-.07.32-.13.42-.06.1-.15.17-.25.22-.11.04-.24.07-.41.07h-9.19c.11,1.53.52,2.65,1.23,3.36.72.72,1.66,1.07,2.84,1.07.58,0,1.08-.07,1.5-.2.42-.14.79-.29,1.1-.45.31-.16.59-.31.83-.45.24-.14.47-.2.69-.2.15,0,.27.03.38.09s.2.14.28.25l1.04,1.31c-.4.46-.84.85-1.33,1.17-.49.31-1.01.57-1.54.75s-1.08.32-1.64.4c-.56.08-1.09.12-1.62.12-1.03,0-2-.17-2.89-.51-.89-.34-1.66-.85-2.32-1.52-.66-.67-1.17-1.5-1.55-2.49s-.57-2.14-.57-3.44c0-1.01.16-1.97.49-2.86.33-.89.8-1.67,1.41-2.33.61-.66,1.36-1.19,2.25-1.57.88-.39,1.88-.58,2.99-.58ZM168.02,77.58c-1.04,0-1.86.29-2.45.88s-.97,1.43-1.13,2.51h6.73c0-.46-.06-.9-.19-1.31-.13-.41-.32-.77-.58-1.08-.26-.31-.59-.55-.99-.73-.4-.18-.86-.27-1.39-.27Z"></path><path class="cls-1" d="M177.3,90.12v-14.88h2.19c.46,0,.77.22.91.65l.25,1.17c.3-.31.62-.59.95-.84.33-.25.69-.47,1.06-.65.37-.18.77-.32,1.2-.42s.89-.15,1.39-.15c.81,0,1.53.14,2.16.41.63.28,1.15.66,1.57,1.16s.74,1.09.96,1.78c.22.69.33,1.45.33,2.28v9.47h-3.58v-9.47c0-.91-.21-1.61-.63-2.11-.42-.5-1.05-.75-1.89-.75-.62,0-1.2.14-1.74.42-.54.28-1.05.66-1.54,1.15v10.76h-3.58Z"></path><path class="cls-1" d="M198.67,90.36c-1.29,0-2.28-.37-2.97-1.09s-1.04-1.74-1.04-3.02v-8.31h-1.51c-.19,0-.36-.06-.5-.19-.14-.13-.21-.31-.21-.57v-1.42l2.39-.39.75-4.06c.04-.19.13-.34.27-.45.14-.11.32-.16.53-.16h1.86v4.68h3.92v2.55h-3.92v8.06c0,.46.12.83.35,1.09.23.26.54.39.93.39.22,0,.41-.03.56-.08.15-.05.28-.11.39-.17.11-.06.21-.11.3-.17s.17-.08.26-.08c.11,0,.19.03.26.08s.14.13.22.24l1.07,1.74c-.52.43-1.12.76-1.8.99-.68.22-1.38.33-2.1.33Z"></path><path class="cls-1" d="M205.01,90.12v-14.88h2.1c.37,0,.62.07.77.2.14.14.24.37.29.7l.22,1.8c.53-.92,1.15-1.64,1.87-2.17.71-.53,1.52-.8,2.41-.8.73,0,1.34.17,1.83.51l-.46,2.68c-.03.17-.09.3-.19.37-.1.07-.23.11-.39.11-.14,0-.34-.03-.59-.1-.25-.07-.58-.1-1-.1-.74,0-1.38.21-1.91.62-.53.41-.98,1.01-1.35,1.8v9.27h-3.58Z"></path><path class="cls-1" d="M223,75.02c.94,0,1.8.15,2.59.45.79.3,1.47.74,2.04,1.31s1.01,1.28,1.33,2.12c.32.84.48,1.79.48,2.86,0,.27-.01.5-.04.67-.02.18-.07.32-.13.42-.06.1-.15.17-.25.22s-.24.07-.41.07h-9.19c.11,1.53.52,2.65,1.23,3.36.72.72,1.66,1.07,2.84,1.07.58,0,1.08-.07,1.5-.2.42-.14.79-.29,1.1-.45.31-.16.59-.31.83-.45.24-.14.47-.2.69-.2.15,0,.27.03.38.09s.2.14.28.25l1.04,1.31c-.4.46-.84.85-1.33,1.17-.49.31-1.01.57-1.54.75s-1.08.32-1.64.4c-.56.08-1.09.12-1.62.12-1.04,0-2-.17-2.89-.51-.89-.34-1.66-.85-2.32-1.52s-1.17-1.5-1.55-2.49c-.38-.99-.57-2.14-.57-3.44,0-1.01.17-1.97.49-2.86.33-.89.8-1.67,1.41-2.33.61-.66,1.36-1.19,2.25-1.57.88-.39,1.88-.58,2.99-.58ZM223.07,77.58c-1.04,0-1.86.29-2.45.88-.59.59-.97,1.43-1.13,2.51h6.73c0-.46-.06-.9-.19-1.31-.13-.41-.32-.77-.58-1.08-.26-.31-.59-.55-.99-.73-.4-.18-.86-.27-1.39-.27Z"></path></g><g><path class="cls-2" d="M32.95,6c-.5-3.9-8.7-6-16.45-6S.55,2.1.05,6h-.05v111.07s0,.07,0,.1v.83h.15c1.17,3.54,8.97,5.44,16.35,5.44s15.18-1.9,16.35-5.44h.15V6h-.05ZM16.5,2c8.98,0,14.5,2.55,14.5,4.37,0,.09-.02.18-.05.27v.03c-.63,1.84-5.88,3.79-12.96,4.04-.49.02-.98.03-1.49.03s-1-.01-1.49-.03c-7.08-.24-12.34-2.2-12.95-4.04v-.03c-.04-.09-.06-.19-.06-.27,0-1.83,5.52-4.37,14.5-4.37ZM31,116h-.05l.05,1.13c-.12,1.82-5.62,4.31-14.5,4.31s-14.36-2.48-14.5-4.3l.04-1.14h-.04V9.56c2.75,1.95,7.91,2.97,12.84,3.15.1,0,.21,0,.31.01.45.01.9.02,1.35.02s.9,0,1.35-.02c.1,0,.21,0,.31-.01,4.93-.19,10.09-1.2,12.84-3.15v106.44Z"></path><path class="cls-2" d="M16.6,9.25c-2.93,0-5.91-.82-5.91-2.37,0-3.12,11.81-3.12,11.81,0,0,1.56-2.97,2.37-5.9,2.37ZM16.6,5.5c-3.17,0-4.91.91-4.91,1.37s1.73,1.37,4.91,1.37,4.9-.91,4.9-1.37-1.73-1.37-4.9-1.37Z"></path></g><path class="cls-2" d="M31.29,8.88v111h213V34.27l-25.41-25.41M239.47,32.28h-18.59V13.69l18.59,18.59ZM242.29,117.88H33.29V10.88h185.59v23.4h23.41v83.6Z"></path></g></svg>