<?xml version="1.0" standalone="no"?>
<!DOCTYPE svg PUBLIC "-//W3C//DTD SVG 20010904//EN"
 "http://www.w3.org/TR/2001/REC-SVG-20010904/DTD/svg10.dtd">
<svg version="1.0" xmlns="http://www.w3.org/2000/svg"
 viewBox="0 0 820.000000 331.000000"
 preserveAspectRatio="xMidYMid meet">

<g transform="translate(0.000000,331.000000) scale(0.100000,-0.100000)"
fill="#1164f4" stroke="none">
<path d="M4695 3302 c6 -6 111 -52 235 -102 214 -87 560 -229 662 -272 40 -17
49 -26 58 -58 45 -167 71 -541 90 -1275 11 -457 18 -572 30 -559 4 5 25 50 45
99 172 422 432 709 730 806 99 33 243 33 337 1 337 -116 473 -528 337 -1022
-45 -160 -158 -405 -265 -571 -25 -39 -44 -72 -42 -74 1 -2 50 -8 108 -15 137
-15 1179 -26 1165 -12 -5 6 -104 65 -220 132 -329 192 -393 238 -428 308 -41
80 -30 147 86 517 170 541 193 652 163 795 -42 197 -160 319 -366 376 -100 28
-359 26 -504 -4 -134 -28 -277 -73 -375 -118 -41 -19 -78 -34 -82 -34 -16 0
-10 105 11 206 26 125 54 228 145 534 40 135 75 257 79 271 l6 27 -123 6 c-67
3 -412 13 -767 21 -355 8 -753 17 -885 21 -166 4 -237 3 -230 -4z"/>
<path d="M97 2854 c-4 -4 -7 -220 -7 -481 l0 -473 85 0 85 0 0 205 0 205 220
0 220 0 0 -205 0 -205 85 0 85 0 -2 478 -3 477 -80 0 -80 0 -3 -202 -2 -203
-220 0 -220 0 -2 203 -3 202 -75 3 c-42 1 -79 0 -83 -4z"/>
<path d="M3122 2638 c-136 -15 -265 -106 -324 -226 -29 -58 -33 -76 -33 -147
0 -70 4 -89 32 -148 76 -159 235 -247 428 -234 100 6 181 36 248 91 46 38 117
127 117 147 0 5 -37 9 -83 9 -80 0 -84 -1 -105 -29 -12 -16 -47 -42 -79 -57
-102 -50 -236 -35 -320 35 -31 26 -73 91 -73 112 0 18 15 19 346 19 l347 0 -6
75 c-17 233 -230 384 -495 353z m169 -139 c64 -22 137 -91 154 -146 l6 -23
-260 0 c-144 0 -261 2 -261 5 0 3 9 23 20 44 24 48 81 96 135 115 49 18 160
20 206 5z"/>
<path d="M1299 2626 c-119 -33 -229 -128 -270 -234 -27 -70 -30 -185 -5 -251
38 -104 148 -203 265 -238 75 -23 220 -23 286 0 28 9 70 31 95 47 l45 30 3
-40 3 -40 75 0 74 0 0 360 0 360 -75 0 -75 0 0 -40 0 -41 -43 30 c-96 66 -257
90 -378 57z m269 -140 c52 -27 113 -87 133 -131 25 -54 25 -145 0 -193 -80
-155 -299 -198 -443 -88 -89 68 -120 198 -70 293 27 51 97 110 154 129 57 18
182 13 226 -10z"/>
<path d="M4065 2630 c-55 -8 -107 -31 -142 -63 l-23 -20 0 36 0 37 -75 0 -75
0 0 -360 0 -360 74 0 74 0 3 223 4 222 30 60 c37 74 78 97 168 98 114 1 171
-36 196 -128 6 -23 11 -131 11 -257 l0 -218 81 0 81 0 -4 248 c-5 224 -7 252
-27 304 -51 131 -202 202 -376 178z"/>
<path d="M1963 2608 c7 -18 282 -647 298 -681 12 -26 16 -28 72 -25 l59 3 164
355 163 355 -76 3 c-42 2 -79 -1 -84 -5 -4 -4 -53 -116 -109 -248 -55 -132
-105 -244 -109 -248 -4 -4 -55 106 -112 245 l-104 253 -84 3 c-65 2 -82 0 -78
-10z"/>
<path d="M6590 1842 c-317 -106 -620 -473 -740 -896 -45 -161 -55 -231 -54
-381 0 -206 43 -342 140 -445 91 -97 215 -135 352 -106 292 61 601 386 751
791 53 145 79 254 92 400 27 286 -63 524 -232 615 -58 31 -73 34 -159 37 -72
2 -109 -1 -150 -15z"/>
<path d="M720 1005 c0 -195 -1 -358 -2 -362 -2 -5 24 -9 57 -11 l60 -3 -3 273
c-2 150 -2 286 -1 303 3 23 32 -36 133 -273 l129 -302 46 0 46 0 133 308 133
307 -5 -307 -5 -308 59 0 60 0 0 365 0 366 -91 -3 -90 -3 -117 -272 c-64 -150
-119 -273 -122 -273 -3 0 -59 124 -124 275 l-118 275 -89 0 -89 0 0 -355z"/>
<path d="M2410 995 l0 -365 60 0 c60 0 60 0 60 30 l0 29 36 -24 c49 -33 95
-45 181 -45 101 0 173 28 238 94 138 138 102 344 -76 441 -98 53 -275 45 -353
-16 l-25 -20 -3 118 -3 118 -57 3 -58 3 0 -366z m451 60 c58 -41 83 -87 83
-150 -2 -112 -86 -187 -209 -187 -171 0 -269 161 -176 290 44 60 100 84 188
80 61 -3 78 -8 114 -33z"/>
<path d="M3170 1300 l0 -60 54 0 54 0 4 50 c1 28 2 55 0 60 -2 6 -28 10 -58
10 l-54 0 0 -60z"/>
<path d="M3420 995 l0 -365 55 0 55 0 0 365 0 365 -55 0 -55 0 0 -365z"/>
<path d="M3664 1346 c-3 -7 -4 -33 -2 -57 l3 -44 58 -3 57 -3 0 61 0 60 -55 0
c-38 0 -57 -4 -61 -14z"/>
<path d="M3950 1270 l0 -90 -45 0 -45 0 0 -45 0 -45 45 0 45 0 0 -230 0 -230
60 0 60 0 0 230 0 230 45 0 45 0 0 45 0 45 -45 0 -45 0 0 90 0 90 -60 0 -60 0
0 -90z"/>
<path d="M1935 1194 c-120 -31 -194 -81 -239 -165 -24 -43 -30 -67 -30 -119
-1 -118 64 -214 184 -269 78 -36 200 -35 282 1 160 73 229 248 153 387 -33 60
-90 111 -156 140 -45 20 -157 34 -194 25z m147 -114 c15 0 80 -64 95 -93 20
-39 20 -125 0 -163 -35 -67 -101 -104 -187 -104 -86 0 -152 37 -187 104 -18
35 -20 124 -3 157 43 83 136 126 235 107 22 -4 43 -7 47 -8z"/>
<path d="M3170 905 l0 -276 58 3 c47 2 57 6 56 21 -1 9 -2 132 -3 272 l-1 255
-55 0 -55 0 0 -275z"/>
<path d="M3660 905 l0 -275 60 0 60 0 0 275 0 275 -60 0 -60 0 0 -275z"/>
<path d="M4200 1113 c15 -38 67 -158 114 -267 l86 -199 -40 -89 c-22 -48 -40
-93 -40 -98 0 -6 26 -10 58 -10 l57 0 168 358 c92 198 167 362 167 366 0 4
-28 6 -61 4 l-62 -3 -87 -192 c-47 -106 -89 -195 -91 -198 -3 -2 -43 85 -88
195 l-83 200 -64 0 -63 0 29 -67z"/>
</g>
</svg>
